<svg width="15" height="15" viewBox="0 0 15 15" fill="none" xmlns="http://www.w3.org/2000/svg">
<path fill-rule="evenodd" clip-rule="evenodd" d="M6.13329 0.666666H12.9666C13.754 0.666666 14.3333 1.24594 14.3333 2.03333V8.86666C14.3333 9.65406 13.754 10.2333 12.9666 10.2333H10.2333V12.9667C10.2333 13.7541 9.65402 14.3333 8.86662 14.3333H2.03329C1.2459 14.3333 0.666626 13.7541 0.666626 12.9667V6.13333C0.666626 5.34594 1.2459 4.76667 2.03329 4.76667H4.76663V2.03333C4.76663 1.24594 5.3459 0.666666 6.13329 0.666666ZM4.76663 6.13333H2.03329V12.9667H8.86662V10.2333H6.13329C5.3459 10.2333 4.76663 9.65406 4.76663 8.86666V6.13333ZM6.13329 2.03333V8.86666H12.9666V2.03333H6.13329Z" fill="white"/>
</svg>
